<svg width="96" height="96" viewBox="0 0 96 96" fill="none" xmlns="http://www.w3.org/2000/svg">
<g filter="url(#filter0_d_348_7693)">
<rect x="16" y="2" width="64" height="64" rx="32" fill="#2E2E2E" shape-rendering="crispEdges"/>
<path fill-rule="evenodd" clip-rule="evenodd" d="M48.0008 22.8C48.8844 22.8 49.6008 23.5163 49.6008 24.4V32.4H57.6008C58.4844 32.4 59.2008 33.1163 59.2008 34C59.2008 34.8837 58.4844 35.6 57.6008 35.6H49.6008V43.6C49.6008 44.4837 48.8844 45.2 48.0008 45.2C47.1171 45.2 46.4008 44.4837 46.4008 43.6V35.6H38.4008C37.5171 35.6 36.8008 34.8837 36.8008 34C36.8008 33.1163 37.5171 32.4 38.4008 32.4H46.4008V24.4C46.4008 23.5163 47.1171 22.8 48.0008 22.8Z" fill="white"/>
<rect x="16.5" y="2.5" width="63" height="63" rx="31.5" stroke="#444444" shape-rendering="crispEdges"/>
</g>
<defs>
<filter id="filter0_d_348_7693" x="0" y="0" width="96" height="96" filterUnits="userSpaceOnUse" color-interpolation-filters="sRGB">
<feFlood flood-opacity="0" result="BackgroundImageFix"/>
<feColorMatrix in="SourceAlpha" type="matrix" values="0 0 0 0 0 0 0 0 0 0 0 0 0 0 0 0 0 0 127 0" result="hardAlpha"/>
<feOffset dy="14"/>
<feGaussianBlur stdDeviation="8"/>
<feComposite in2="hardAlpha" operator="out"/>
<feColorMatrix type="matrix" values="0 0 0 0 0 0 0 0 0 0 0 0 0 0 0 0 0 0 0.06 0"/>
<feBlend mode="normal" in2="BackgroundImageFix" result="effect1_dropShadow_348_7693"/>
<feBlend mode="normal" in="SourceGraphic" in2="effect1_dropShadow_348_7693" result="shape"/>
</filter>
</defs>
</svg>
