<svg width="110" height="146" viewBox="0 0 110 146" fill="none" xmlns="http://www.w3.org/2000/svg">
<path d="M81.2528 0.758597C81.3579 -0.252866 82.6421 -0.252866 82.7472 0.758597L83.6282 9.24385C84.7657 20.2006 92.3245 28.8392 101.912 30.1392L109.336 31.146C110.221 31.2662 110.221 32.7339 109.336 32.854L101.912 33.8608C92.3245 35.1608 84.7657 43.7994 83.6282 54.7561L82.7472 63.2413C82.6421 64.2529 81.3579 64.2529 81.2528 63.2413L80.3718 54.7561C79.2343 43.7994 71.6755 35.1608 62.0884 33.8608L54.6638 32.854C53.7787 32.7339 53.7787 31.2662 54.6638 31.146L62.0884 30.1392C71.6755 28.8392 79.2343 20.2006 80.3718 9.24385L81.2528 0.758597Z" fill="white"/>
<path d="M39.9059 33.3513C40.0598 31.5496 41.9403 31.5496 42.0942 33.3513L43.3841 48.4656C45.0498 67.9823 56.118 83.3698 70.1562 85.6855L81.0279 87.4789C82.324 87.6928 82.324 90.3072 81.0279 90.5211L70.1562 92.3145C56.118 94.6302 45.0498 110.018 43.3841 129.534L42.0942 144.649C41.9403 146.45 40.0598 146.45 39.9059 144.649L38.6159 129.534C36.9502 110.018 25.882 94.6302 11.8437 92.3145L0.971952 90.5211C-0.323984 90.3072 -0.323984 87.6928 0.971952 87.4789L11.8437 85.6855C25.882 83.3698 36.9502 67.9823 38.6159 48.4656L39.9059 33.3513Z" fill="url(#paint0_linear_0_1)"/>
<defs>
<linearGradient id="paint0_linear_0_1" x1="41" y1="57.7857" x2="33.2383" y2="126.118" gradientUnits="userSpaceOnUse">
<stop stop-color="#FDCD01"/>
<stop offset="1" stop-color="#FF285A"/>
</linearGradient>
</defs>
</svg>
