<svg width="784" height="1271" viewBox="0 0 784 1271" fill="none" xmlns="http://www.w3.org/2000/svg">
<path d="M200.206 774.637C162.626 862.766 149.558 951.458 158.785 1023.6C168.013 1095.75 199.521 1151.23 250.977 1173.18C302.432 1195.12 364.281 1179.45 422.739 1136.15C481.184 1092.87 536.141 1022.04 573.721 933.914C611.302 845.785 624.369 757.093 615.142 684.953C605.914 612.799 574.406 557.317 522.951 535.375C471.495 513.433 409.646 529.105 351.188 572.397C292.743 615.679 237.787 686.508 200.206 774.637Z" stroke="#FFCB27" stroke-width="1.1237"/>
<path d="M85.8807 1198.87C85.7568 1197.71 84.2432 1197.71 84.1193 1198.87L83.0811 1208.54C81.7404 1221.04 72.8319 1230.89 61.5328 1232.38L52.7824 1233.53C51.7392 1233.66 51.7392 1235.34 52.7824 1235.47L61.5328 1236.62C72.8319 1238.11 81.7404 1247.96 83.0811 1260.46L84.1193 1270.13C84.2432 1271.29 85.7568 1271.29 85.8807 1270.13L86.9189 1260.46C88.2596 1247.96 97.1681 1238.11 108.467 1236.62L117.218 1235.47C118.261 1235.34 118.261 1233.66 117.218 1233.53L108.467 1232.38C97.1681 1230.89 88.2596 1221.04 86.9189 1208.54L85.8807 1198.87Z" fill="#323F4B"/>
<path d="M46.4537 1005.43C46.3899 1004.86 45.6101 1004.86 45.5463 1005.43L45.0115 1010.2C44.3208 1016.36 39.7316 1021.22 33.9108 1021.95L29.4031 1022.52C28.8657 1022.59 28.8657 1023.41 29.4031 1023.48L33.9108 1024.05C39.7316 1024.78 44.3208 1029.64 45.0115 1035.8L45.5463 1040.57C45.6101 1041.14 46.3899 1041.14 46.4537 1040.57L46.9885 1035.8C47.6792 1029.64 52.2684 1024.78 58.0892 1024.05L62.597 1023.48C63.1343 1023.41 63.1343 1022.59 62.597 1022.52L58.0892 1021.95C52.2684 1021.22 47.6792 1016.36 46.9885 1010.2L46.4537 1005.43Z" fill="url(#paint0_linear_0_1)"/>
<path d="M138.275 1065.59C138.025 1063.47 134.975 1063.47 134.725 1065.59L132.633 1083.35C129.931 1106.3 111.979 1124.38 89.2101 1127.1L71.5766 1129.21C69.4745 1129.46 69.4745 1132.54 71.5766 1132.79L89.2101 1134.9C111.979 1137.62 129.931 1155.71 132.633 1178.65L134.725 1196.41C134.975 1198.53 138.025 1198.53 138.275 1196.41L140.367 1178.65C143.069 1155.71 161.021 1137.62 183.79 1134.9L201.424 1132.79C203.525 1132.54 203.525 1129.46 201.424 1129.21L183.79 1127.1C161.021 1124.38 143.069 1106.3 140.367 1083.35L138.275 1065.59Z" fill="url(#paint1_linear_0_1)"/>
<path d="M257.679 731.353C194.701 829.612 159.073 932.242 152.358 1018.72C145.64 1105.23 167.855 1175.43 220.354 1209.08C272.853 1242.73 345.913 1233.6 421.711 1191.36C497.486 1149.14 575.857 1073.91 638.835 975.651C701.812 877.392 737.441 774.762 744.156 688.279C750.873 601.771 728.658 531.573 676.159 497.925C623.66 464.276 550.601 473.408 474.803 515.641C399.028 557.86 320.656 633.095 257.679 731.353Z" stroke="#F47F7F" stroke-width="1.1237"/>
<path d="M6.48194 0.33333C5.00918 0.33333 3.81528 1.52724 3.81528 3C3.81528 4.47276 5.00918 5.66666 6.48194 5.66666C7.9547 5.66666 9.14861 4.47276 9.14861 3C9.14861 1.52724 7.9547 0.33333 6.48194 0.33333ZM36.4819 211L36.4819 211.5L36.4819 211ZM82.4819 208.333C81.0092 208.333 79.8153 209.527 79.8153 211C79.8153 212.473 81.0092 213.667 82.4819 213.667C83.9547 213.667 85.1486 212.473 85.1486 211C85.1486 209.527 83.9547 208.333 82.4819 208.333ZM5.98194 3L5.98193 181L6.98193 181L6.98194 3L5.98194 3ZM36.4819 211.5L82.4819 211.5L82.4819 210.5L36.4819 210.5L36.4819 211.5ZM5.98193 181C5.98193 197.845 19.6372 211.5 36.4819 211.5L36.4819 210.5C20.1895 210.5 6.98193 197.292 6.98193 181L5.98193 181Z" fill="#FF285A"/>
<path d="M354.492 896.331C355.965 896.323 357.165 897.51 357.173 898.983C357.181 900.456 355.993 901.656 354.521 901.664C353.048 901.672 351.848 900.484 351.84 899.011C351.832 897.539 353.019 896.338 354.492 896.331ZM353.628 734.999L354.128 734.997L353.628 734.999ZM323.468 705.161L323.465 704.661L323.468 705.161ZM290.468 702.671C291.94 702.663 293.141 703.85 293.149 705.323C293.156 706.796 291.969 707.996 290.496 708.004C289.023 708.012 287.823 706.824 287.815 705.351C287.807 703.879 288.995 702.678 290.468 702.671ZM354.006 899L353.128 735.002L354.128 734.997L355.006 898.994L354.006 899ZM323.471 705.661L290.485 705.837L290.479 704.837L323.465 704.661L323.471 705.661ZM353.128 735.002C353.041 718.71 339.763 705.573 323.471 705.661L323.465 704.661C340.31 704.57 354.038 718.152 354.128 734.997L353.128 735.002Z" fill="#5A6B7E"/>
<path d="M665.482 207.333C664.009 207.333 662.815 208.527 662.815 210C662.815 211.473 664.009 212.667 665.482 212.667C666.955 212.667 668.149 211.473 668.149 210C668.149 208.527 666.955 207.333 665.482 207.333ZM712.482 210L712.482 210.5L712.482 210ZM742.482 240L741.982 240L742.482 240ZM742.482 425L742.982 425L742.482 425ZM712.482 455L712.482 454.5L712.482 455ZM665.482 452.333C664.009 452.333 662.815 453.527 662.815 455C662.815 456.473 664.009 457.667 665.482 457.667C666.955 457.667 668.149 456.473 668.149 455C668.149 453.527 666.955 452.333 665.482 452.333ZM665.482 210.5L712.482 210.5L712.482 209.5L665.482 209.5L665.482 210.5ZM741.982 240L741.982 425L742.982 425L742.982 240L741.982 240ZM712.482 454.5L665.482 454.5L665.482 455.5L712.482 455.5L712.482 454.5ZM741.982 425C741.982 441.292 728.774 454.5 712.482 454.5L712.482 455.5C729.327 455.5 742.982 441.845 742.982 425L741.982 425ZM712.482 210.5C728.774 210.5 741.982 223.708 741.982 240L742.982 240C742.982 223.155 729.327 209.5 712.482 209.5L712.482 210.5Z" fill="#FF285A"/>
<path d="M66.4813 707.686C67.9541 707.686 69.1482 706.493 69.1484 705.02C69.1486 703.547 67.9549 702.353 66.4821 702.353C65.0094 702.353 63.8153 703.546 63.8151 705.019C63.8148 706.492 65.0086 707.686 66.4813 707.686ZM31 705.014L31.0001 704.514L31 705.014ZM1.0045 675.01L1.5045 675.01L1.0045 675.01ZM1.03223 490.01L0.532226 490.01L1.03223 490.01ZM31.0367 460.014L31.0368 459.514L31.0367 460.014ZM66.518 462.686C67.9908 462.686 69.1849 461.493 69.1851 460.02C69.1853 458.547 67.9916 457.353 66.5188 457.353C65.0461 457.353 63.852 458.546 63.8518 460.019C63.8516 461.492 65.0453 462.686 66.518 462.686ZM66.4818 704.52L31.0001 704.514L30.9999 705.514L66.4817 705.52L66.4818 704.52ZM1.5045 675.01L1.53223 490.01L0.532226 490.01L0.504499 675.01L1.5045 675.01ZM31.0366 460.514L66.5184 460.52L66.5185 459.52L31.0368 459.514L31.0366 460.514ZM1.53223 490.01C1.53467 473.717 14.7442 460.512 31.0366 460.514L31.0368 459.514C14.1921 459.512 0.534751 473.165 0.532226 490.01L1.53223 490.01ZM31.0001 704.514C14.7077 704.512 1.50206 691.302 1.5045 675.01L0.504499 675.01C0.501975 691.854 14.1552 705.512 30.9999 705.514L31.0001 704.514Z" fill="#5A6B7E"/>
<path d="M82.4867 208.033C81.014 208.03 79.8179 209.222 79.8153 210.694C79.8126 212.167 81.0044 213.363 82.4771 213.366C83.9499 213.369 85.146 212.177 85.1486 210.704C85.1513 209.231 83.9595 208.035 82.4867 208.033ZM249.487 208.333C248.014 208.331 246.818 209.522 246.815 210.995C246.813 212.468 248.004 213.664 249.477 213.667C250.95 213.669 252.146 212.478 252.149 211.005C252.151 209.532 250.959 208.336 249.487 208.333ZM82.481 211.199L249.481 211.5L249.483 210.5L82.4828 210.199L82.481 211.199Z" fill="#FF285A"/>
<path d="M288.482 208.333C287.009 208.333 285.815 209.527 285.815 211C285.815 212.473 287.009 213.667 288.482 213.667C289.955 213.667 291.149 212.473 291.149 211C291.149 209.527 289.955 208.333 288.482 208.333ZM438.482 208.333C437.009 208.333 435.815 209.527 435.815 211C435.815 212.473 437.009 213.667 438.482 213.667C439.955 213.667 441.149 212.473 441.149 211C441.149 209.527 439.955 208.333 438.482 208.333ZM288.482 211.5H438.482V210.5H288.482V211.5Z" fill="#FF285A"/>
<path d="M288.482 452.333C287.009 452.333 285.815 453.527 285.815 455C285.815 456.473 287.009 457.667 288.482 457.667C289.955 457.667 291.149 456.473 291.149 455C291.149 453.527 289.955 452.333 288.482 452.333ZM438.482 452.333C437.009 452.333 435.815 453.527 435.815 455C435.815 456.473 437.009 457.667 438.482 457.667C439.955 457.667 441.149 456.473 441.149 455C441.149 453.527 439.955 452.333 438.482 452.333ZM288.482 455.5H438.482V454.5H288.482V455.5Z" fill="#FF285A"/>
<path d="M476.482 208.333C475.009 208.333 473.815 209.527 473.815 211C473.815 212.473 475.009 213.667 476.482 213.667C477.955 213.667 479.149 212.473 479.149 211C479.149 209.527 477.955 208.333 476.482 208.333ZM626.482 208.333C625.009 208.333 623.815 209.527 623.815 211C623.815 212.473 625.009 213.667 626.482 213.667C627.955 213.667 629.149 212.473 629.149 211C629.149 209.527 627.955 208.333 626.482 208.333ZM476.482 211.5H626.482V210.5H476.482V211.5Z" fill="#FF285A"/>
<path d="M476.482 453.333C475.009 453.333 473.815 454.527 473.815 456C473.815 457.473 475.009 458.667 476.482 458.667C477.955 458.667 479.149 457.473 479.149 456C479.149 454.527 477.955 453.333 476.482 453.333ZM626.482 453.333C625.009 453.333 623.815 454.527 623.815 456C623.815 457.473 625.009 458.667 626.482 458.667C627.955 458.667 629.149 457.473 629.149 456C629.149 454.527 627.955 453.333 626.482 453.333ZM476.482 456.5H626.482V455.5H476.482V456.5Z" fill="#FF285A"/>
<path d="M106.482 453.333C105.009 453.333 103.815 454.527 103.815 456C103.815 457.473 105.009 458.667 106.482 458.667C107.955 458.667 109.149 457.473 109.149 456C109.149 454.527 107.955 453.333 106.482 453.333ZM249.482 453.333C248.009 453.333 246.815 454.527 246.815 456C246.815 457.473 248.009 458.667 249.482 458.667C250.955 458.667 252.149 457.473 252.149 456C252.149 454.527 250.955 453.333 249.482 453.333ZM106.482 456.5H249.482V455.5H106.482V456.5Z" fill="url(#paint2_linear_0_1)"/>
<path d="M106.482 702.333C105.009 702.333 103.815 703.527 103.815 705C103.815 706.473 105.009 707.667 106.482 707.667C107.955 707.667 109.149 706.473 109.149 705C109.149 703.527 107.955 702.333 106.482 702.333ZM249.482 702.333C248.009 702.333 246.815 703.527 246.815 705C246.815 706.473 248.009 707.667 249.482 707.667C250.955 707.667 252.149 706.473 252.149 705C252.149 703.527 250.955 702.333 249.482 702.333ZM106.482 705.5H249.482V704.5H106.482V705.5Z" fill="#5A6B7E"/>
<rect x="69.9819" y="195.199" width="31" height="31" rx="15.5" fill="url(#paint3_linear_0_1)"/>
<path fill-rule="evenodd" clip-rule="evenodd" d="M90.8475 206.934C91.1599 207.246 91.1599 207.752 90.8475 208.065L84.4475 214.465C84.1351 214.777 83.6286 214.777 83.3162 214.465L80.1162 211.265C79.8037 210.952 79.8037 210.446 80.1162 210.134C80.4286 209.821 80.9351 209.821 81.2475 210.134L83.8818 212.768L89.7162 206.934C90.0286 206.621 90.5351 206.621 90.8475 206.934Z" fill="white"/>
<rect x="69.9819" y="195.199" width="31" height="31" rx="15.5" stroke="#E4E7EB"/>
<rect x="253.982" y="195.5" width="31" height="31" rx="15.5" fill="url(#paint4_linear_0_1)"/>
<path fill-rule="evenodd" clip-rule="evenodd" d="M274.848 207.234C275.16 207.547 275.16 208.053 274.848 208.366L268.448 214.766C268.135 215.078 267.629 215.078 267.316 214.766L264.116 211.566C263.804 211.253 263.804 210.747 264.116 210.434C264.429 210.122 264.935 210.122 265.248 210.434L267.882 213.069L273.716 207.234C274.029 206.922 274.535 206.922 274.848 207.234Z" fill="white"/>
<rect x="253.982" y="195.5" width="31" height="31" rx="15.5" stroke="#E4E7EB"/>
<rect x="441.982" y="195.5" width="31" height="31" rx="15.5" fill="url(#paint5_linear_0_1)"/>
<path fill-rule="evenodd" clip-rule="evenodd" d="M462.848 207.234C463.16 207.547 463.16 208.053 462.848 208.366L456.448 214.766C456.135 215.078 455.629 215.078 455.316 214.766L452.116 211.566C451.804 211.253 451.804 210.747 452.116 210.434C452.429 210.122 452.935 210.122 453.248 210.434L455.882 213.069L461.716 207.234C462.029 206.922 462.535 206.922 462.848 207.234Z" fill="white"/>
<rect x="441.982" y="195.5" width="31" height="31" rx="15.5" stroke="#E4E7EB"/>
<rect x="629.982" y="195.5" width="31" height="31" rx="15.5" fill="url(#paint6_linear_0_1)"/>
<path fill-rule="evenodd" clip-rule="evenodd" d="M650.848 207.234C651.16 207.547 651.16 208.053 650.848 208.366L644.448 214.766C644.135 215.078 643.629 215.078 643.316 214.766L640.116 211.566C639.804 211.253 639.804 210.747 640.116 210.434C640.429 210.122 640.935 210.122 641.248 210.434L643.882 213.069L649.716 207.234C650.029 206.922 650.535 206.922 650.848 207.234Z" fill="white"/>
<rect x="629.982" y="195.5" width="31" height="31" rx="15.5" stroke="#E4E7EB"/>
<rect x="629.982" y="441.5" width="31" height="31" rx="15.5" fill="url(#paint7_linear_0_1)"/>
<path fill-rule="evenodd" clip-rule="evenodd" d="M650.848 453.234C651.16 453.547 651.16 454.053 650.848 454.366L644.448 460.766C644.135 461.078 643.629 461.078 643.316 460.766L640.116 457.566C639.804 457.253 639.804 456.747 640.116 456.434C640.429 456.122 640.935 456.122 641.248 456.434L643.882 459.069L649.716 453.234C650.029 452.922 650.535 452.922 650.848 453.234Z" fill="white"/>
<rect x="629.982" y="441.5" width="31" height="31" rx="15.5" stroke="#E4E7EB"/>
<rect x="441.982" y="441.5" width="31" height="31" rx="15.5" fill="url(#paint8_linear_0_1)"/>
<path fill-rule="evenodd" clip-rule="evenodd" d="M462.848 453.234C463.16 453.547 463.16 454.053 462.848 454.366L456.448 460.766C456.135 461.078 455.629 461.078 455.316 460.766L452.116 457.566C451.804 457.253 451.804 456.747 452.116 456.434C452.429 456.122 452.935 456.122 453.248 456.434L455.882 459.069L461.716 453.234C462.029 452.922 462.535 452.922 462.848 453.234Z" fill="white"/>
<rect x="441.982" y="441.5" width="31" height="31" rx="15.5" stroke="#E4E7EB"/>
<rect x="252.982" y="441.5" width="31" height="31" rx="15.5" fill="url(#paint9_linear_0_1)"/>
<path fill-rule="evenodd" clip-rule="evenodd" d="M273.848 453.234C274.16 453.547 274.16 454.053 273.848 454.366L267.448 460.766C267.135 461.078 266.629 461.078 266.316 460.766L263.116 457.566C262.804 457.253 262.804 456.747 263.116 456.434C263.429 456.122 263.935 456.122 264.248 456.434L266.882 459.069L272.716 453.234C273.029 452.922 273.535 452.922 273.848 453.234Z" fill="white"/>
<rect x="252.982" y="441.5" width="31" height="31" rx="15.5" stroke="#E4E7EB"/>
<g filter="url(#filter0_d_0_1)">
<rect x="70.4819" y="441" width="32" height="32" rx="16" fill="#323F4B" shape-rendering="crispEdges"/>
<path d="M86.4819 454.333V457L88.4819 459M92.4819 457C92.4819 460.314 89.7956 463 86.4819 463C83.1682 463 80.4819 460.314 80.4819 457C80.4819 453.686 83.1682 451 86.4819 451C89.7956 451 92.4819 453.686 92.4819 457Z" stroke="white" stroke-width="2" stroke-linecap="round" stroke-linejoin="round"/>
<rect x="70.9819" y="441.5" width="31" height="31" rx="15.5" stroke="white" shape-rendering="crispEdges"/>
</g>
<g filter="url(#filter1_d_0_1)">
<rect x="70.4819" y="687" width="32" height="32" rx="16" fill="#323F4B" shape-rendering="crispEdges"/>
<path d="M86.4819 700.333V703L88.4819 705M92.4819 703C92.4819 706.314 89.7956 709 86.4819 709C83.1682 709 80.4819 706.314 80.4819 703C80.4819 699.686 83.1682 697 86.4819 697C89.7956 697 92.4819 699.686 92.4819 703Z" stroke="white" stroke-width="2" stroke-linecap="round" stroke-linejoin="round"/>
<rect x="70.9819" y="687.5" width="31" height="31" rx="15.5" stroke="white" shape-rendering="crispEdges"/>
</g>
<g filter="url(#filter2_d_0_1)">
<rect x="253.482" y="687" width="32" height="32" rx="16" fill="#323F4B" shape-rendering="crispEdges"/>
<path d="M269.482 700.333V703L271.482 705M275.482 703C275.482 706.314 272.796 709 269.482 709C266.168 709 263.482 706.314 263.482 703C263.482 699.686 266.168 697 269.482 697C272.796 697 275.482 699.686 275.482 703Z" stroke="white" stroke-width="2" stroke-linecap="round" stroke-linejoin="round"/>
<rect x="253.982" y="687.5" width="31" height="31" rx="15.5" stroke="white" shape-rendering="crispEdges"/>
</g>
<g filter="url(#filter3_d_0_1)">
<rect x="338.482" y="904" width="32" height="32" rx="16" fill="#FFCB27" shape-rendering="crispEdges"/>
<path d="M354.138 914.34C354.244 914.02 354.72 914.02 354.826 914.34L355.747 917.114C355.932 917.671 356.457 918.038 357.04 918.038H360.02C360.391 918.038 360.493 918.472 360.236 918.655L357.825 920.37C357.348 920.71 357.142 921.318 357.328 921.877L358.249 924.651C358.299 924.804 358.245 924.94 358.121 925.028C357.995 925.117 357.833 925.131 357.688 925.028L355.278 923.314C354.803 922.976 354.161 922.976 353.686 923.314L351.276 925.028C351.131 925.131 350.969 925.117 350.843 925.028C350.719 924.94 350.665 924.804 350.716 924.651L351.636 921.877C351.822 921.318 351.616 920.71 351.139 920.37L348.728 918.655C348.471 918.472 348.573 918.038 348.944 918.038H351.924C352.507 918.038 353.032 917.671 353.217 917.114L352.743 916.956L353.217 917.114L354.138 914.34Z" fill="#FF285A" stroke="#FF285A"/>
<rect x="338.982" y="904.5" width="31" height="31" rx="15.5" stroke="white" shape-rendering="crispEdges"/>
</g>
<defs>
<filter id="filter0_d_0_1" x="54.4819" y="439" width="64" height="64" filterUnits="userSpaceOnUse" color-interpolation-filters="sRGB">
<feFlood flood-opacity="0" result="BackgroundImageFix"/>
<feColorMatrix in="SourceAlpha" type="matrix" values="0 0 0 0 0 0 0 0 0 0 0 0 0 0 0 0 0 0 127 0" result="hardAlpha"/>
<feOffset dy="14"/>
<feGaussianBlur stdDeviation="8"/>
<feComposite in2="hardAlpha" operator="out"/>
<feColorMatrix type="matrix" values="0 0 0 0 0 0 0 0 0 0 0 0 0 0 0 0 0 0 0.06 0"/>
<feBlend mode="normal" in2="BackgroundImageFix" result="effect1_dropShadow_0_1"/>
<feBlend mode="normal" in="SourceGraphic" in2="effect1_dropShadow_0_1" result="shape"/>
</filter>
<filter id="filter1_d_0_1" x="54.4819" y="685" width="64" height="64" filterUnits="userSpaceOnUse" color-interpolation-filters="sRGB">
<feFlood flood-opacity="0" result="BackgroundImageFix"/>
<feColorMatrix in="SourceAlpha" type="matrix" values="0 0 0 0 0 0 0 0 0 0 0 0 0 0 0 0 0 0 127 0" result="hardAlpha"/>
<feOffset dy="14"/>
<feGaussianBlur stdDeviation="8"/>
<feComposite in2="hardAlpha" operator="out"/>
<feColorMatrix type="matrix" values="0 0 0 0 0 0 0 0 0 0 0 0 0 0 0 0 0 0 0.06 0"/>
<feBlend mode="normal" in2="BackgroundImageFix" result="effect1_dropShadow_0_1"/>
<feBlend mode="normal" in="SourceGraphic" in2="effect1_dropShadow_0_1" result="shape"/>
</filter>
<filter id="filter2_d_0_1" x="237.482" y="685" width="64" height="64" filterUnits="userSpaceOnUse" color-interpolation-filters="sRGB">
<feFlood flood-opacity="0" result="BackgroundImageFix"/>
<feColorMatrix in="SourceAlpha" type="matrix" values="0 0 0 0 0 0 0 0 0 0 0 0 0 0 0 0 0 0 127 0" result="hardAlpha"/>
<feOffset dy="14"/>
<feGaussianBlur stdDeviation="8"/>
<feComposite in2="hardAlpha" operator="out"/>
<feColorMatrix type="matrix" values="0 0 0 0 0 0 0 0 0 0 0 0 0 0 0 0 0 0 0.06 0"/>
<feBlend mode="normal" in2="BackgroundImageFix" result="effect1_dropShadow_0_1"/>
<feBlend mode="normal" in="SourceGraphic" in2="effect1_dropShadow_0_1" result="shape"/>
</filter>
<filter id="filter3_d_0_1" x="322.482" y="902" width="64" height="64" filterUnits="userSpaceOnUse" color-interpolation-filters="sRGB">
<feFlood flood-opacity="0" result="BackgroundImageFix"/>
<feColorMatrix in="SourceAlpha" type="matrix" values="0 0 0 0 0 0 0 0 0 0 0 0 0 0 0 0 0 0 127 0" result="hardAlpha"/>
<feOffset dy="14"/>
<feGaussianBlur stdDeviation="8"/>
<feComposite in2="hardAlpha" operator="out"/>
<feColorMatrix type="matrix" values="0 0 0 0 0 0 0 0 0 0 0 0 0 0 0 0 0 0 0.06 0"/>
<feBlend mode="normal" in2="BackgroundImageFix" result="effect1_dropShadow_0_1"/>
<feBlend mode="normal" in="SourceGraphic" in2="effect1_dropShadow_0_1" result="shape"/>
</filter>
<linearGradient id="paint0_linear_0_1" x1="46" y1="1013.14" x2="47.8768" y2="1034.84" gradientUnits="userSpaceOnUse">
<stop stop-color="#FDCD01"/>
<stop offset="1" stop-color="#FF285A"/>
</linearGradient>
<linearGradient id="paint1_linear_0_1" x1="136.5" y1="1094.31" x2="143.152" y2="1175.12" gradientUnits="userSpaceOnUse">
<stop stop-color="#FDCD01"/>
<stop offset="1" stop-color="#FF285A"/>
</linearGradient>
<linearGradient id="paint2_linear_0_1" x1="249.482" y1="456.5" x2="106.482" y2="456.5" gradientUnits="userSpaceOnUse">
<stop stop-color="#FE414C"/>
<stop offset="1" stop-color="#5A6B7E"/>
</linearGradient>
<linearGradient id="paint3_linear_0_1" x1="88.9819" y1="196.199" x2="85.8184" y2="210.441" gradientUnits="userSpaceOnUse">
<stop stop-color="#FDCD01"/>
<stop offset="1" stop-color="#FF285A"/>
</linearGradient>
<linearGradient id="paint4_linear_0_1" x1="272.982" y1="196.5" x2="269.818" y2="210.742" gradientUnits="userSpaceOnUse">
<stop stop-color="#FDCD01"/>
<stop offset="1" stop-color="#FF285A"/>
</linearGradient>
<linearGradient id="paint5_linear_0_1" x1="460.982" y1="196.5" x2="457.818" y2="210.742" gradientUnits="userSpaceOnUse">
<stop stop-color="#FDCD01"/>
<stop offset="1" stop-color="#FF285A"/>
</linearGradient>
<linearGradient id="paint6_linear_0_1" x1="648.982" y1="196.5" x2="645.818" y2="210.742" gradientUnits="userSpaceOnUse">
<stop stop-color="#FDCD01"/>
<stop offset="1" stop-color="#FF285A"/>
</linearGradient>
<linearGradient id="paint7_linear_0_1" x1="648.982" y1="442.5" x2="645.818" y2="456.742" gradientUnits="userSpaceOnUse">
<stop stop-color="#FDCD01"/>
<stop offset="1" stop-color="#FF285A"/>
</linearGradient>
<linearGradient id="paint8_linear_0_1" x1="460.982" y1="442.5" x2="457.818" y2="456.742" gradientUnits="userSpaceOnUse">
<stop stop-color="#FDCD01"/>
<stop offset="1" stop-color="#FF285A"/>
</linearGradient>
<linearGradient id="paint9_linear_0_1" x1="271.982" y1="442.5" x2="268.818" y2="456.742" gradientUnits="userSpaceOnUse">
<stop stop-color="#FDCD01"/>
<stop offset="1" stop-color="#FF285A"/>
</linearGradient>
</defs>
</svg>
