<svg width="526" height="89" viewBox="0 0 526 89" fill="none" xmlns="http://www.w3.org/2000/svg">
<path d="M33.768 23.584C32.04 24.16 30.576 25.216 29.376 26.752C28.272 28.24 27.72 29.728 27.72 31.216C27.912 31.072 28.464 31 29.376 31C30.72 31 31.872 31.456 32.832 32.368C33.744 33.328 34.2 34.552 34.2 36.04C34.2 37.432 33.696 38.632 32.688 39.64C31.632 40.6 30.336 41.08 28.8 41.08C27.12 41.08 25.704 40.36 24.552 38.92C23.4 37.528 22.824 35.728 22.824 33.52C22.824 30.016 23.808 27.04 25.776 24.592C27.648 22.048 30.312 20.32 33.768 19.408V23.584ZM18.288 23.584C16.56 24.16 15.096 25.216 13.896 26.752C12.696 28.192 12.144 29.68 12.24 31.216C12.432 31.072 12.936 31 13.752 31C15.144 31 16.296 31.456 17.208 32.368C18.216 33.328 18.72 34.552 18.72 36.04C18.72 37.432 18.216 38.632 17.208 39.64C16.152 40.6 14.856 41.08 13.32 41.08C11.592 41.08 10.176 40.36 9.072 38.92C7.92 37.528 7.344 35.728 7.344 33.52C7.344 30.016 8.304 27.04 10.224 24.592C12.144 22.048 14.832 20.32 18.288 19.408V23.584Z" fill="#FF285A"/>
<path d="M513.834 15.32C513.787 14.8933 513.213 14.8933 513.166 15.32L512.773 18.8997C512.265 23.5221 508.891 27.1665 504.611 27.715L501.296 28.1397C500.901 28.1904 500.901 28.8096 501.296 28.8603L504.611 29.285C508.891 29.8335 512.265 33.4779 512.773 38.1002L513.166 41.6799C513.213 42.1067 513.787 42.1067 513.834 41.6799L514.227 38.1002C514.735 33.4779 518.109 29.8335 522.389 29.285L525.704 28.8603C526.099 28.8096 526.099 28.1904 525.704 28.1397L522.389 27.715C518.109 27.1665 514.735 23.5221 514.227 18.8997L513.834 15.32Z" fill="url(#paint0_linear_4_5484)"/>
<path d="M493.213 13.2015C493.183 12.9328 492.817 12.9328 492.787 13.2015L492.535 15.4554C492.21 18.3658 490.05 20.6604 487.311 21.0057L485.19 21.2732C484.937 21.3051 484.937 21.6949 485.19 21.7268L487.311 21.9943C490.05 22.3396 492.21 24.6342 492.535 27.5446L492.787 29.7985C492.817 30.0672 493.183 30.0672 493.213 29.7985L493.465 27.5446C493.79 24.6342 495.95 22.3396 498.689 21.9943L500.81 21.7268C501.063 21.6949 501.063 21.3051 500.81 21.2732L498.689 21.0057C495.95 20.6604 493.79 18.3658 493.465 15.4554L493.213 13.2015Z" fill="url(#paint1_linear_4_5484)"/>
<defs>
<linearGradient id="paint0_linear_4_5484" x1="513.5" y1="21.1071" x2="514.935" y2="37.3733" gradientUnits="userSpaceOnUse">
<stop stop-color="#FDCD01"/>
<stop offset="1" stop-color="#FF285A"/>
</linearGradient>
<linearGradient id="paint1_linear_4_5484" x1="493" y1="16.8452" x2="493.889" y2="27.0895" gradientUnits="userSpaceOnUse">
<stop stop-color="#FDCD01"/>
<stop offset="1" stop-color="#FF285A"/>
</linearGradient>
</defs>
</svg>
