<svg width="25" height="26" viewBox="0 0 25 26" fill="none" xmlns="http://www.w3.org/2000/svg">
<g clip-path="url(#clip0_254_7578)">
<path d="M12.5 25.5C19.4036 25.5 25 19.9036 25 13C25 6.09644 19.4036 0.5 12.5 0.5C5.59644 0.5 0 6.09644 0 13C0 19.9036 5.59644 25.5 12.5 25.5Z" fill="url(#paint0_linear_254_7578)"/>
<path fill-rule="evenodd" clip-rule="evenodd" d="M5.65782 12.8681C9.30182 11.2804 11.7317 10.2338 12.9475 9.72808C16.4189 8.28421 17.1402 8.03339 17.6104 8.02511C17.7138 8.02329 17.945 8.04892 18.0948 8.17044C18.2212 8.27305 18.256 8.41167 18.2727 8.50896C18.2893 8.60625 18.3101 8.82787 18.2936 9.00104C18.1055 10.9776 17.2915 15.7741 16.8774 17.9879C16.7022 18.9246 16.3571 19.2387 16.0231 19.2694C15.2972 19.3362 14.746 18.7897 14.0429 18.3289C12.9428 17.6077 12.3213 17.1588 11.2534 16.455C10.0192 15.6417 10.8193 15.1948 11.5226 14.4642C11.7067 14.2731 14.905 11.3639 14.9669 11.1C14.9746 11.067 14.9818 10.944 14.9087 10.879C14.8356 10.8141 14.7278 10.8363 14.6499 10.854C14.5396 10.879 12.7821 12.0407 9.37735 14.3389C8.87848 14.6815 8.42662 14.8484 8.02177 14.8397C7.57546 14.83 6.71693 14.5873 6.0787 14.3798C5.29589 14.1254 4.67372 13.9908 4.7279 13.5587C4.75612 13.3336 5.06609 13.1034 5.65782 12.8681Z" fill="white"/>
</g>
<defs>
<linearGradient id="paint0_linear_254_7578" x1="12.5" y1="0.5" x2="12.5" y2="25.3146" gradientUnits="userSpaceOnUse">
<stop stop-color="#2AABEE"/>
<stop offset="1" stop-color="#229ED9"/>
</linearGradient>
<clipPath id="clip0_254_7578">
<rect width="25" height="25" fill="white" transform="translate(0 0.5)"/>
</clipPath>
</defs>
</svg>
